<?xml version="1.0" encoding="utf-8"?>
<!-- Generator: Adobe Illustrator 24.0.0, SVG Export Plug-In . SVG Version: 6.00 Build 0)  -->
<svg version="1.1" xmlns="http://www.w3.org/2000/svg" xmlns:xlink="http://www.w3.org/1999/xlink" x="0px" y="0px"
	 viewBox="0 0 256 256" style="enable-background:new 0 0 256 256;" xml:space="preserve">
<style type="text/css">
	.st0{fill:#F98FA6;}
	.st1{fill:#FC657E;}
	.st2{fill:#DAE6F1;}
	.st3{fill:#5290DB;}
	.st4{fill:#FCDD86;}
	.st5{fill:#F5C84C;}
	.st6{fill:#87D147;}
	.st7{fill:#70D6F9;}
	.st8{fill:#EDF4FC;}
	.st9{fill:#9BE5F9;}
	.st10{fill:#B2E26D;}
	.st11{fill:#F9C1A8;}
	.st12{fill:#414344;}
	.st13{fill:#E1FBFF;}
	.st14{fill:#FFE3EC;}
	.st15{fill:#FCBECF;}
	.st16{fill:#EF4460;}
	.st17{fill:#80C2F9;}
	.st18{fill:#3A70BF;}
	.st19{fill:#FCA265;}
	.st20{fill:#5B5D60;}
	.st21{fill:#818182;}
	.st22{fill:#C7D7E5;}
	.st23{fill:#F9D0B4;}
	.st24{fill:#AA6F59;}
	.st25{fill:#D1856D;}
	.st26{fill:#FCC29A;}
	.st27{fill:#29589F;}
	.st28{fill:#F7B386;}
	.st29{fill:#FC8C48;}
	.st30{fill:#FFF0CC;}
	.st31{fill:#57AF12;}
	.st32{fill:#3CAADC;}
	.st33{fill:#EDB311;}
	.st34{fill:#231F20;}
</style>
<g id="Layer_1">
</g>
<g id="Layer_2">
</g>
<g id="Layer_3">
</g>
<g id="Layer_4">
</g>
<g id="Layer_5">
</g>
<g id="Layer_6">
</g>
<g id="Layer_7">
</g>
<g id="Layer_8">
</g>
<g id="Layer_9">
</g>
<g id="Layer_10">
</g>
<g id="Layer_11">
</g>
<g id="Layer_12">
</g>
<g id="Layer_13">
</g>
<g id="Layer_14">
</g>
<g id="Layer_15">
</g>
<g id="Layer_16">
</g>
<g id="Layer_17">
</g>
<g id="Layer_18">
</g>
<g id="Layer_19">
</g>
<g id="Layer_20">
</g>
<g id="Layer_21">
</g>
<g id="Layer_22">
</g>
<g id="Layer_23">
</g>
<g id="Layer_24">
</g>
<g id="Layer_25">
</g>
<g id="Layer_26">
</g>
<g id="Layer_27">
</g>
<g id="Layer_28">
</g>
<g id="Layer_29">
</g>
<g id="Layer_30">
</g>
<g id="Layer_31">
</g>
<g id="Layer_32">
</g>
<g id="Layer_33">
</g>
<g id="Layer_34">
</g>
<g id="Layer_35">
</g>
<g id="Layer_36">
</g>
<g id="Layer_37">
</g>
<g id="Layer_38">
</g>
<g id="Layer_39">
</g>
<g id="Layer_40">
</g>
<g id="Layer_41">
</g>
<g id="Layer_42">
</g>
<g id="Layer_43">
</g>
<g id="Layer_44">
</g>
<g id="Layer_45">
</g>
<g id="Layer_46">
</g>
<g id="Layer_47">
</g>
<g id="Layer_48">
</g>
<g id="Layer_49">
</g>
<g id="Layer_50">
</g>
<g id="Layer_51">
</g>
<g id="Layer_52">
</g>
<g id="Layer_53">
</g>
<g id="Layer_54">
</g>
<g id="Layer_55">
</g>
<g id="Layer_56">
</g>
<g id="Layer_57">
</g>
<g id="Layer_58">
</g>
<g id="Layer_59">
</g>
<g id="Layer_60">
</g>
<g id="Layer_61">
</g>
<g id="Layer_62">
</g>
<g id="Layer_63">
</g>
<g id="Layer_64">
</g>
<g id="Layer_65">
</g>
<g id="Layer_66">
</g>
<g id="Layer_67">
</g>
<g id="Layer_68">
</g>
<g id="Layer_69">
</g>
<g id="Layer_70">
</g>
<g id="Layer_71">
</g>
<g id="Layer_72">
</g>
<g id="Layer_73">
</g>
<g id="Layer_74">
</g>
<g id="Layer_75">
</g>
<g id="Layer_76">
</g>
<g id="Layer_77">
</g>
<g id="Layer_78">
</g>
<g id="Layer_79">
</g>
<g id="Layer_80">
</g>
<g id="Layer_81">
</g>
<g id="Layer_82">
</g>
<g id="Layer_83">
	<g>
		<g>
			<g>
				<path class="st7" d="M207.956,184.738c-0.377-6.761-5.111-12.492-11.685-14.145l-30.484-7.665l-10.774-5.306
					c-4.631-2.281-7.563-6.992-7.563-12.149V136c-5.557,3.022-11.914,4.742-18.654,4.742h0c-6.285,0-12.232-1.504-17.513-4.156
					v8.886c0,0.323-0.013,0.644-0.036,0.964l9.944,2.299c2.808,0.649,4.993,3.573,4.343,6.378l-0.262,1.13
					c0.107,0.1,0.221,0.188,0.319,0.3c1.483,1.708,1.299,4.293-0.411,5.775l3.983-3.451c1.71-1.481,4.298-1.297,5.781,0.411
					c1.483,1.707,1.299,4.292-0.411,5.774l-3.983,3.45c1.71-1.481,4.298-1.297,5.781,0.411l0.079,0.091
					c1.483,1.708,1.299,4.294-0.411,5.775l-3.829,3.317c1.655-1.434,4.176-1.226,5.571,0.482c1.348,1.65,1.02,4.107-0.591,5.503
					l-14.381,12.29c-3.103,2.689-6.676,4.783-10.54,6.178l-2.391,0.863c-3.863,1.395-7.436,3.489-10.539,6.178l-3.775,3.27
					l0.613,0.707c0.657,0.757,0.576,1.904-0.182,2.561L75,234.188v15.593c0,2.053,1.667,3.718,3.723,3.718h77.596
					c-5.041-0.003-9.127-4.087-9.127-9.124v-1.281c0-1.668,1.353-3.339,3.022-3.339h5.99c-2.05,0-3.728-1.756-3.728-3.804v-7.337
					c0-2.048,1.677-4.033,3.728-4.033h8.525c-2.05,0-3.773-1.681-3.773-3.729v-7.337c0-2.048,1.722-4.03,3.773-4.03h9.459
					c2.05,0,3.773,1.981,3.773,4.03c0-2.048,1.722-4.03,3.773-4.03h9.459c2.05,0,3.773,1.981,3.773,4.03
					c0-2.048,1.722-4.03,3.773-4.03h9.459c0.515,0,1.006,0.126,1.453,0.345L207.956,184.738z"/>
			</g>
		</g>
		<g>
			<g>
				<path class="st11" d="M155.016,157.526c-4.631-2.283-7.563-6.998-7.563-12.161v-9.481c-5.557,3.025-11.913,4.747-18.653,4.747h0
					c-6.284,0-12.231-1.506-17.512-4.16v8.895c0,0.324-0.012,0.646-0.034,0.965l9.942,2.302c2.808,0.65,4.993,3.577,4.343,6.385
					l-0.262,1.131c1.882,1.749,1.669,4.554-0.092,6.081l3.982-3.454c1.71-1.482,4.297-1.298,5.78,0.411
					c1.483,1.71,1.299,4.297-0.411,5.781l-3.982,3.454c1.71-1.483,4.297-1.299,5.78,0.411l0.079,0.091
					c1.353,1.56,1.303,3.84-0.011,5.356c8.837-2.092,16.234-8.018,20.305-15.916L155.016,157.526z"/>
			</g>
		</g>
		<g>
			<g>
				<path class="st5" d="M46.882,163.941c-3.135-0.583-5.606-3.004-6.202-6.076c-0.03-0.154-0.245-0.154-0.275,0
					c-0.596,3.071-3.067,5.492-6.202,6.076c-0.157,0.029-0.157,0.24,0,0.27c3.135,0.584,5.606,3.004,6.202,6.076
					c0.03,0.154,0.245,0.154,0.275,0c0.596-3.071,3.067-5.492,6.202-6.076C47.039,164.181,47.039,163.97,46.882,163.941z"/>
			</g>
		</g>
		<g>
			<g>
				<path class="st6" d="M74.444,22.882c-4.498-0.837-8.043-4.31-8.898-8.716c-0.043-0.221-0.352-0.221-0.395,0
					c-0.855,4.406-4.4,7.879-8.898,8.716c-0.226,0.042-0.226,0.345,0,0.387c4.498,0.838,8.043,4.311,8.898,8.717
					c0.043,0.221,0.352,0.221,0.395,0c0.855-4.406,4.4-7.879,8.898-8.717C74.67,23.227,74.67,22.924,74.444,22.882z"/>
			</g>
		</g>
		<g>
			<g>
				<path class="st7" d="M204.843,135.302h-2.329v-2.33c0-1.744-1.413-3.157-3.157-3.157s-3.157,1.413-3.157,3.157v2.33h-2.33
					c-1.744,0-3.157,1.414-3.157,3.158c0,1.744,1.413,3.157,3.157,3.157h2.33v2.33c0,1.744,1.413,3.158,3.157,3.158
					s3.157-1.414,3.157-3.158v-2.33h2.329c1.744,0,3.157-1.414,3.157-3.157C208,136.715,206.587,135.302,204.843,135.302z"/>
			</g>
		</g>
		<g>
			<g>
				<path class="st1" d="M220.377,154c-1.865,0-3.377,1.512-3.377,3.377c0,1.865,1.512,3.377,3.377,3.377s3.377-1.512,3.377-3.377
					C223.754,155.512,222.242,154,220.377,154z"/>
			</g>
		</g>
		<g>
			<g>
				<path class="st5" d="M88.377,0C86.512,0,85,1.512,85,3.377c0,1.865,1.512,3.377,3.377,3.377s3.377-1.512,3.377-3.377
					C91.754,1.512,90.242,0,88.377,0z"/>
			</g>
		</g>
		<g>
			<g>
				<path class="st11" d="M137.745,178.504c-1.395-1.709-3.916-1.917-5.571-0.482l3.829-3.321c1.71-1.483,1.893-4.071,0.411-5.78
					l-0.079-0.091c-1.483-1.709-4.071-1.893-5.78-0.411l3.982-3.454c1.71-1.483,1.893-4.071,0.411-5.78
					c-1.483-1.71-4.071-1.894-5.78-0.411l-3.982,3.454c1.71-1.482,1.893-4.071,0.411-5.78s-4.071-1.894-5.78-0.411l-18.58,15.945
					c2.094-3.069,3.611-5.658,4.675-7.843c1.471-3.02,0.044-6.649-3.082-7.876c-0.6-0.235-1.278-0.011-1.62,0.536
					c-2.146,3.435-5.462,7.602-7.682,10.281c-1.554,1.876-2.725,4.039-3.456,6.363l-2.082,6.622
					c-1.049,3.335-3.002,6.313-5.643,8.604l-4.429,3.841l17.615,20.31l3.774-3.273c3.103-2.691,6.675-4.787,10.538-6.184
					l2.391-0.864c3.863-1.396,7.436-3.493,10.539-6.184l14.38-12.302C138.766,182.616,139.094,180.157,137.745,178.504z"/>
			</g>
		</g>
		<g>
			<g>
				<path class="st7" d="M92.952,162.838l-30.482,7.673c-5.545,1.396-9.179,5.509-11.197,11.069l-15.439,43.472
					c0.039-0.034,0.072-0.072,0.111-0.105l38.724-33.408c0.758-0.657,1.905-0.576,2.563,0.183l0.685,0.789l4.429-3.842
					c2.641-2.291,4.595-5.269,5.643-8.604l2.082-6.622c0.731-2.324,1.902-4.487,3.456-6.363c1.61-1.944,3.794-4.67,5.693-7.333
					L92.952,162.838z"/>
			</g>
		</g>
		<g>
			<g>
				<path class="st7" d="M96.145,213.527l-18.913-21.806c-0.657-0.758-1.805-0.84-2.563-0.183l-38.724,33.408
					c-6.829,5.891-7.554,16.217-1.615,23.004c5.88,6.721,16.082,7.437,22.843,1.604l38.789-33.463
					C96.721,215.433,96.803,214.286,96.145,213.527z"/>
			</g>
		</g>
		<g>
			<g>
				<path d="M101.093,158.824c-0.611-1.238-2.11-1.745-3.348-1.137l-5.66,2.792l-30.225,7.607
					c-6.011,1.514-10.484,5.885-12.942,12.656l-15.349,43.218c-0.462,1.302,0.218,2.73,1.52,3.192
					c0.276,0.099,0.559,0.146,0.836,0.146c1.028,0,1.992-0.64,2.356-1.664l15.343-43.202c1.886-5.196,5.068-8.393,9.457-9.497
					l30.482-7.672c0.171-0.044,0.337-0.104,0.496-0.183l5.898-2.909C101.195,161.562,101.704,160.063,101.093,158.824z"/>
			</g>
		</g>
		<g>
			<g>
				<g>
					<path d="M111.289,134.669c-1.381,0-2.5,1.119-2.5,2.5v7.498c0,1.381,1.119,2.5,2.5,2.5s2.5-1.119,2.5-2.5v-7.498
						C113.789,135.788,112.669,134.669,111.289,134.669z"/>
				</g>
			</g>
			<g>
				<g>
					<path d="M210.452,184.531c-0.44-7.903-5.894-14.512-13.57-16.445l-30.225-7.606l-10.535-5.195
						c-3.805-1.876-6.169-5.677-6.169-9.919v-8.538c0-1.381-1.119-2.5-2.5-2.5s-2.5,1.119-2.5,2.5v8.538
						c0,6.16,3.433,11.679,8.958,14.403l10.773,5.313c0.158,0.078,0.324,0.139,0.495,0.183l30.481,7.672
						c5.543,1.396,9.48,6.167,9.801,11.902l1.655,24.515c0.089,1.32,1.188,2.332,2.491,2.332c0.057,0,0.114-0.002,0.171-0.006
						c1.378-0.093,2.419-1.285,2.326-2.662L210.452,184.531z"/>
				</g>
			</g>
			<g>
				<g>
					<path d="M156.322,251H78.73c-0.674,0-1.223-0.549-1.223-1.223v-14.644c0-1.381-1.119-2.5-2.5-2.5s-2.5,1.119-2.5,2.5v14.644
						c0,3.432,2.792,6.223,6.223,6.223h77.592c1.381,0,2.5-1.119,2.5-2.5S157.703,251,156.322,251z"/>
				</g>
			</g>
		</g>
		<g>
			<g>
				<path class="st11" d="M168.044,65.803c-0.022-1.113-0.913-2.031-2.026-2.063c-16.306-0.479-24.897-6.94-28.198-10.177
					c-0.901-0.883-2.356-0.79-3.141,0.198c-14.336,18.028-35.484,15.484-42.595,13.996c-1.292-0.27-2.532,0.704-2.533,2.024v31.6
					c0,21.587,17.662,39.25,39.25,39.25h0c21.587,0,39.25-17.663,39.25-39.25V66.417C168.05,66.212,168.048,66.007,168.044,65.803z"
					/>
			</g>
		</g>
		<g>
			<g>
				<path class="st1" d="M136.785,106.659h-15.822c-2.752,0-5.003,2.251-5.003,5.003v2.944c0,7.103,5.811,12.914,12.914,12.914
					c0.926,0,1.828-0.104,2.701-0.291c-0.767-0.604-1.27-1.53-1.27-2.576v-6.485c0-1.81,1.481-3.562,3.292-3.562h8.192v-2.944
					C141.788,108.91,139.537,106.659,136.785,106.659z"/>
			</g>
		</g>
		<g>
			<g>
				<path class="st8" d="M136.785,106.659h-15.822c-2.752,0-5.003,2.251-5.003,5.003v2.944h25.828v-2.944
					C141.788,108.911,139.537,106.659,136.785,106.659z"/>
			</g>
		</g>
		<g>
			<g>
				<path class="st12" d="M159.514,24.17c-4.182,0-8.093,1.182-11.453,3.197c-3.925-6.551-11.076-10.974-19.227-10.974h-11.513
					c-22.283,0-40.514,18.231-40.514,40.514v18.153c2.804-2.244,6.354-3.593,10.224-3.593c0.857,0,1.697,0.072,2.519,0.2v-1.886
					c0.001-1.32,1.241-2.294,2.533-2.023c7.111,1.488,28.259,4.032,42.595-13.997c0.785-0.987,2.24-1.081,3.141-0.197
					c3.301,3.236,11.892,9.698,28.198,10.177c1.113,0.032,2.004,0.95,2.026,2.063c0.004,0.204,0.006,0.409,0.006,0.614v5.25
					c0.822-0.127,1.661-0.2,2.519-0.2c4.417,0,8.419,1.756,11.366,4.598V46.59C181.935,34.259,171.845,24.17,159.514,24.17z"/>
			</g>
		</g>
		<g>
			<g>
				<path class="st11" d="M170.569,71.467c-0.857,0-1.697,0.072-2.519,0.2v29.714c0,0.885-0.04,1.761-0.099,2.632
					c0.854,0.137,1.724,0.229,2.618,0.229c9.05,0,16.387-7.337,16.387-16.387S179.619,71.467,170.569,71.467z"/>
			</g>
		</g>
		<g>
			<g>
				<path class="st11" d="M89.55,101.381c0-4.066,0-21.629,0-29.714c-0.822-0.127-1.661-0.2-2.519-0.2
					c-9.05,0-16.387,7.337-16.387,16.387s7.337,16.387,16.387,16.387c0.893,0,1.763-0.091,2.618-0.229v-0.001
					C89.591,103.142,89.55,102.266,89.55,101.381z"/>
			</g>
		</g>
		<g>
			<g>
				<g>
					<path d="M170.543,65.753c-0.049-2.459-2.005-4.44-4.452-4.512c-15.695-0.461-23.775-6.771-26.521-9.463
						c-0.933-0.914-2.219-1.394-3.514-1.313c-1.303,0.08-2.518,0.714-3.334,1.739c0,0,0,0-0.001,0.001
						c-13.229,16.639-32.467,14.71-40.125,13.104c-1.364-0.286-2.771,0.056-3.855,0.936c-1.073,0.871-1.689,2.159-1.69,3.563v31.573
						c0,23.021,18.729,41.75,41.75,41.75s41.75-18.729,41.75-41.75V66.417C170.55,66.196,170.548,65.976,170.543,65.753z
						 M165.55,101.381c0,20.264-16.485,36.75-36.75,36.75s-36.75-16.486-36.75-36.75v-31.08c7.199,1.42,29.292,3.895,44.323-14.658
						c4.055,3.853,13.012,10.015,29.176,10.584c0.001,0.063,0.001,0.127,0.001,0.19V101.381z"/>
				</g>
			</g>
		</g>
		<g>
			<g>
				<path d="M159.515,21.67c-3.67,0-7.303,0.832-10.635,2.423c-4.681-6.344-12.162-10.199-20.046-10.199h-11.513
					c-23.718,0-43.014,19.296-43.014,43.014v17.431c0,1.381,1.119,2.5,2.5,2.5s2.5-1.119,2.5-2.5V56.907
					c0-20.961,17.053-38.014,38.014-38.014h11.513c6.93,0,13.476,3.739,17.083,9.759c0.341,0.568,0.894,0.979,1.537,1.14
					c0.642,0.162,1.324,0.06,1.894-0.281c3.099-1.858,6.614-2.841,10.167-2.841c10.983,0,19.92,8.936,19.92,19.92v28.656
					c0,1.381,1.119,2.5,2.5,2.5s2.5-1.119,2.5-2.5V46.59C184.435,32.849,173.256,21.67,159.515,21.67z"/>
			</g>
		</g>
		<g>
			<g>
				<path d="M170.568,68.967c-0.623,0-1.267,0.034-1.912,0.102c-1.373,0.143-2.371,1.372-2.228,2.745s1.364,2.38,2.745,2.228
					c0.475-0.049,0.943-0.074,1.395-0.074c7.657,0,13.888,6.23,13.888,13.888s-6.23,13.887-13.888,13.887
					c-0.418,0-0.841-0.023-1.294-0.072c-1.382-0.14-2.604,0.849-2.752,2.221c-0.146,1.373,0.849,2.605,2.221,2.752
					c0.623,0.066,1.236,0.1,1.825,0.1c10.415,0,18.888-8.473,18.888-18.887C189.456,77.439,180.983,68.967,170.568,68.967z"/>
			</g>
		</g>
		<g>
			<g>
				<path d="M91.171,103.869c-0.153-1.372-1.389-2.368-2.761-2.208c-0.486,0.054-0.937,0.08-1.378,0.08
					c-7.657,0-13.887-6.229-13.887-13.887s6.23-13.888,13.887-13.888c0.382,0,0.76,0.018,1.134,0.05
					c1.38,0.139,2.588-0.896,2.708-2.272c0.121-1.375-0.896-2.588-2.272-2.708c-0.523-0.046-1.052-0.069-1.57-0.069
					c-10.415,0-18.887,8.473-18.887,18.888c0,10.414,8.473,18.887,18.887,18.887c0.628,0,1.26-0.036,1.931-0.111
					C90.335,106.478,91.323,105.241,91.171,103.869z"/>
			</g>
		</g>
		<g>
			<g>
				<path d="M157.621,156.682c-1.216-0.654-2.731-0.204-3.388,1.013c-3.78,7.003-10.351,12.127-18.026,14.058
					c-1.339,0.337-2.151,1.696-1.814,3.035c0.286,1.134,1.305,1.891,2.423,1.891c0.202,0,0.407-0.025,0.612-0.076
					c9.031-2.273,16.761-8.299,21.206-16.532C159.289,158.854,158.836,157.338,157.621,156.682z"/>
			</g>
		</g>
		<g>
			<g>
				<path d="M136.785,104.159h-15.822c-4.137,0-7.503,3.366-7.503,7.503v2.944c0,8.499,6.915,15.413,15.414,15.413
					c1.012,0,2.035-0.104,3.042-0.308c1.354-0.274,2.229-1.594,1.954-2.946c-0.274-1.354-1.603-2.228-2.946-1.954
					c-0.682,0.138-1.371,0.208-2.05,0.208c-5.742,0-10.414-4.671-10.414-10.413v-2.944c0-1.38,1.123-2.503,2.503-2.503h15.822
					c1.38,0,2.503,1.123,2.503,2.503v2.397c0,1.381,1.119,2.5,2.5,2.5s2.5-1.119,2.5-2.5v-2.397
					C144.288,107.525,140.922,104.159,136.785,104.159z"/>
			</g>
		</g>
		<g>
			<g>
				<path d="M135.313,112.106h-18.834c-1.381,0-2.5,1.119-2.5,2.5s1.119,2.5,2.5,2.5h18.834c1.381,0,2.5-1.119,2.5-2.5
					S136.694,112.106,135.313,112.106z"/>
			</g>
		</g>
		<g>
			<g>
				<path d="M111.49,81.808c-4.939,0-8.957,4.019-8.957,8.957c0,1.381,1.119,2.5,2.5,2.5s2.5-1.119,2.5-2.5
					c0-2.182,1.775-3.957,3.957-3.957c2.182,0,3.957,1.775,3.957,3.957c0,1.381,1.119,2.5,2.5,2.5s2.5-1.119,2.5-2.5
					C120.447,85.826,116.429,81.808,111.49,81.808z"/>
			</g>
		</g>
		<g>
			<g>
				<path d="M147.252,81.808c-4.938,0-8.957,4.019-8.957,8.957c0,1.381,1.119,2.5,2.5,2.5s2.5-1.119,2.5-2.5
					c0-2.182,1.775-3.957,3.957-3.957s3.957,1.775,3.957,3.957c0,1.381,1.119,2.5,2.5,2.5s2.5-1.119,2.5-2.5
					C156.209,85.826,152.19,81.808,147.252,81.808z"/>
			</g>
		</g>
		<g>
			<g>
				<path class="st2" d="M141.949,114.606h-8.353c-1.81,0-3.292,1.751-3.292,3.562v6.485c0,1.811,1.481,3.292,3.292,3.292h8.353
					c1.81,0,3.292-1.481,3.292-3.292v-6.485C145.24,116.357,143.759,114.606,141.949,114.606z"/>
			</g>
		</g>
		<g>
			<g>
				<g>
					<path d="M141.948,112.106h-8.353c-3.139,0-5.791,2.775-5.791,6.062v6.485c0,3.193,2.598,5.792,5.791,5.792h8.353
						c3.193,0,5.792-2.599,5.792-5.792v-6.485C147.74,114.882,145.088,112.106,141.948,112.106z M142.74,124.653
						c0,0.43-0.362,0.792-0.792,0.792h-8.353c-0.429,0-0.791-0.362-0.791-0.792v-6.485c0-0.513,0.464-1.062,0.791-1.062h8.353
						c0.327,0,0.792,0.549,0.792,1.062V124.653z"/>
				</g>
			</g>
		</g>
		<g>
			<g>
				<path class="st2" d="M121.196,148.632l-10.06-2.329c-2.808-0.65-5.638,1.115-6.288,3.923l-1.457,6.293
					c2.729,1.42,3.898,4.789,2.519,7.62c-0.616,1.266-1.39,2.671-2.334,4.222c0.321,0.273,0.677,0.508,1.064,0.699l15.175-13.022
					c1.597-1.385,3.948-1.298,5.461,0.11l0.262-1.131C126.189,152.208,124.004,149.282,121.196,148.632z"/>
			</g>
		</g>
		<g>
			<g>
				<path d="M126.712,149.58c-1.19-1.697-2.995-2.931-4.952-3.384l-10.058-2.328c-2.009-0.465-4.083-0.118-5.842,0.979
					c-1.757,1.097-2.981,2.808-3.447,4.816l-1.297,5.603c-0.312,1.345,0.527,2.688,1.872,2.999c0.19,0.044,0.379,0.065,0.566,0.065
					c1.138-0.001,2.166-0.782,2.434-1.938l1.297-5.602c0.164-0.708,0.598-1.313,1.223-1.702s1.358-0.512,2.066-0.35l10.059,2.328
					c0.759,0.176,1.501,0.692,1.985,1.383c0.267,0.381,0.684,1.146,0.486,2.003l-0.164,0.709c-0.312,1.345,0.527,2.688,1.872,2.999
					c1.344,0.314,2.688-0.527,2.999-1.872l0.164-0.708C128.439,153.575,127.979,151.388,126.712,149.58z"/>
			</g>
		</g>
		<g>
			<g>
				<g>
					<path d="M98.034,211.89l-18.913-21.807c-1.559-1.799-4.291-1.992-6.084-0.437l-38.724,33.407
						c-3.811,3.287-6.104,7.862-6.456,12.884c-0.353,5.021,1.278,9.871,4.593,13.659c3.694,4.221,8.898,6.384,14.128,6.384
						c4.342-0.001,8.704-1.492,12.229-4.534l38.794-33.468C99.399,216.418,99.593,213.687,98.034,211.89z M55.542,247.661
						c-5.701,4.916-14.371,4.31-19.33-1.357c-2.43-2.777-3.626-6.335-3.368-10.017c0.259-3.682,1.94-7.037,4.734-9.448
						l38.212-32.965l18.018,20.774L55.542,247.661z"/>
				</g>
			</g>
		</g>
		<g>
			<g>
				<path d="M139.683,176.925c-0.365-0.447-0.78-0.838-1.235-1.164c0.848-1.043,1.355-2.318,1.452-3.687
					c0.125-1.759-0.442-3.46-1.592-4.784l-0.084-0.098c-0.379-0.438-0.807-0.817-1.271-1.135c2.004-2.438,2.021-6.048-0.115-8.51
					c-1.154-1.332-2.758-2.134-4.517-2.259c-1.373-0.096-2.73,0.231-3.893,0.94c-0.249-0.506-0.564-0.982-0.943-1.419
					c-2.383-2.748-6.558-3.044-9.297-0.671l-9.21,7.904c0.059-1.153-0.124-2.319-0.551-3.414c-0.835-2.143-2.543-3.854-4.684-4.693
					c-1.719-0.676-3.673-0.027-4.653,1.538c-2.154,3.447-5.615,7.752-7.486,10.01c-1.764,2.129-3.082,4.555-3.916,7.209
					l-2.082,6.621c-0.911,2.896-2.604,5.477-4.896,7.466l-3.897,3.38c-1.043,0.904-1.156,2.483-0.251,3.526s2.484,1.155,3.526,0.251
					l3.898-3.38c2.992-2.596,5.202-5.965,6.39-9.743l2.082-6.621c0.64-2.034,1.647-3.891,2.997-5.519
					c2.176-2.626,5.117-6.328,7.28-9.621c0.46,0.356,0.816,0.832,1.035,1.393c0.333,0.854,0.296,1.776-0.104,2.599
					c-1.069,2.193-2.581,4.727-4.493,7.528c-0.707,1.036-0.537,2.436,0.397,3.271c0.935,0.837,2.343,0.852,3.295,0.035l18.59-15.954
					c0.666-0.577,1.677-0.505,2.254,0.16c0.28,0.322,0.417,0.734,0.387,1.16c-0.03,0.425-0.223,0.812-0.544,1.091l-0.003,0.003
					c-1.043,0.904-1.155,2.483-0.25,3.526s2.483,1.156,3.526,0.251c0,0,0,0,0,0l3.982-3.454c0.666-0.577,1.677-0.505,2.254,0.16
					c0.577,0.666,0.505,1.677-0.16,2.254l-3.979,3.451c-0.001,0.001-0.004,0.003-0.004,0.003c-1.043,0.905-1.155,2.483-0.25,3.526
					c0.904,1.044,2.484,1.154,3.526,0.251l0.004-0.003c0.322-0.277,0.737-0.415,1.156-0.384c0.426,0.03,0.814,0.224,1.089,0.54
					l0.085,0.099c0.279,0.322,0.416,0.733,0.386,1.159s-0.225,0.814-0.546,1.094l-3.822,3.313c-0.002,0.003-0.005,0.005-0.007,0.007
					c-1.043,0.904-1.155,2.483-0.251,3.526c0.904,1.044,2.484,1.154,3.526,0.251l0.002-0.002c0.289-0.248,0.659-0.373,1.032-0.334
					c0.219,0.019,0.636,0.11,0.962,0.511c0.463,0.566,0.329,1.5-0.279,2.028l-14.393,12.313c-2.883,2.5-6.163,4.425-9.751,5.721
					l-2.391,0.864c-4.169,1.508-7.98,3.744-11.326,6.646l-3.323,2.882c-1.043,0.904-1.155,2.483-0.25,3.526
					c0.495,0.57,1.19,0.862,1.89,0.862c0.581,0,1.164-0.201,1.637-0.611l3.323-2.882c2.88-2.499,6.161-4.424,9.75-5.721l2.39-0.864
					c4.168-1.506,7.979-3.742,11.315-6.636l14.393-12.313C141.446,183.601,141.845,179.573,139.683,176.925z"/>
			</g>
		</g>
		<g>
			<g>
				<path class="st2" d="M165.667,224.552h-9.459c-2.05,0-3.728,1.987-3.728,4.037v7.344c0,2.05,1.677,3.808,3.728,3.808h9.459
					c2.05,0,3.773-1.758,3.773-3.808v-7.344C169.439,226.539,167.717,224.552,165.667,224.552z"/>
			</g>
		</g>
		<g>
			<g>
				<g>
					<path d="M165.667,222.052h-9.459c-3.376,0-6.228,2.994-6.228,6.538v7.344c0,3.479,2.794,6.308,6.228,6.308h9.459
						c3.4,0,6.272-2.889,6.272-6.308v-7.344C171.939,225.107,169.009,222.052,165.667,222.052z M166.939,235.934
						c0,0.685-0.606,1.308-1.272,1.308h-9.459c-0.643,0-1.228-0.623-1.228-1.308v-7.344c0-0.733,0.643-1.538,1.228-1.538h9.459
						c0.606,0,1.272,0.805,1.272,1.538V235.934z"/>
				</g>
			</g>
		</g>
		<g>
			<g>
				<path class="st2" d="M182.67,224.552h-9.459c-2.05,0-3.773,1.987-3.773,4.037v7.344c0,2.05,1.722,3.808,3.773,3.808h9.459
					c2.05,0,3.773-1.758,3.773-3.808v-7.344C186.443,226.539,184.721,224.552,182.67,224.552z"/>
			</g>
		</g>
		<g>
			<g>
				<g>
					<path d="M182.671,222.052h-9.459c-3.342,0-6.272,3.056-6.272,6.538v7.344c0,3.419,2.872,6.308,6.272,6.308h9.459
						c3.4,0,6.272-2.889,6.272-6.308v-7.344C188.943,225.107,186.013,222.052,182.671,222.052z M183.943,235.934
						c0,0.685-0.606,1.308-1.272,1.308h-9.459c-0.666,0-1.272-0.623-1.272-1.308v-7.344c0-0.733,0.666-1.538,1.272-1.538h9.459
						c0.606,0,1.272,0.805,1.272,1.538V235.934z"/>
				</g>
			</g>
		</g>
		<g>
			<g>
				<path class="st2" d="M199.674,224.552h-9.459c-2.05,0-3.773,1.987-3.773,4.037v7.344c0,2.05,1.722,3.808,3.773,3.808h9.459
					c2.05,0,3.773-1.758,3.773-3.808v-7.344C203.447,226.539,201.724,224.552,199.674,224.552z"/>
			</g>
		</g>
		<g>
			<g>
				<g>
					<path d="M199.674,222.052h-9.458c-3.342,0-6.272,3.056-6.272,6.538v7.344c0,3.419,2.872,6.308,6.272,6.308h9.458
						c3.4,0,6.272-2.889,6.272-6.308v-7.344C205.946,225.107,203.016,222.052,199.674,222.052z M200.946,235.934
						c0,0.685-0.606,1.308-1.272,1.308h-9.458c-0.666,0-1.272-0.623-1.272-1.308v-7.344c0-0.733,0.666-1.538,1.272-1.538h9.458
						c0.606,0,1.272,0.805,1.272,1.538V235.934z"/>
				</g>
			</g>
		</g>
		<g>
			<g>
				<path class="st2" d="M216.678,224.552h-9.459c-2.05,0-3.773,1.987-3.773,4.037v7.344c0,2.05,1.722,3.808,3.773,3.808h9.459
					c2.05,0,3.728-1.758,3.728-3.808v-7.344C220.405,226.539,218.728,224.552,216.678,224.552z"/>
			</g>
		</g>
		<g>
			<g>
				<g>
					<path d="M216.678,222.052h-9.458c-3.342,0-6.273,3.056-6.273,6.538v7.344c0,3.419,2.873,6.308,6.273,6.308h9.458
						c3.434,0,6.228-2.829,6.228-6.308v-7.344C222.905,225.046,220.054,222.052,216.678,222.052z M217.905,235.934
						c0,0.696-0.573,1.308-1.228,1.308h-9.458c-0.666,0-1.273-0.623-1.273-1.308v-7.344c0-0.733,0.666-1.538,1.273-1.538h9.458
						c0.585,0,1.228,0.805,1.228,1.538V235.934z"/>
				</g>
			</g>
		</g>
		<g>
			<g>
				<path class="st2" d="M174.191,209.441h-9.459c-2.05,0-3.773,1.983-3.773,4.034v7.344c0,2.05,1.722,3.733,3.773,3.733h9.459
					c2.05,0,3.773-1.683,3.773-3.733v-7.344C177.964,211.425,176.241,209.441,174.191,209.441z"/>
			</g>
		</g>
		<g>
			<g>
				<g>
					<path d="M174.191,206.941h-9.459c-3.342,0-6.272,3.053-6.272,6.533v7.345c0,3.437,2.813,6.232,6.272,6.232h9.459
						c3.459,0,6.272-2.796,6.272-6.232v-7.345C180.464,209.994,177.533,206.941,174.191,206.941z M175.464,220.819
						c0,0.656-0.595,1.232-1.272,1.232h-9.459c-0.678,0-1.272-0.576-1.272-1.232v-7.345c0-0.73,0.666-1.533,1.272-1.533h9.459
						c0.606,0,1.272,0.803,1.272,1.533V220.819z"/>
				</g>
			</g>
		</g>
		<g>
			<g>
				<path class="st2" d="M191.195,209.441h-9.459c-2.05,0-3.773,1.983-3.773,4.034v7.344c0,2.05,1.722,3.733,3.773,3.733h9.459
					c2.05,0,3.773-1.683,3.773-3.733v-7.344C194.967,211.425,193.245,209.441,191.195,209.441z"/>
			</g>
		</g>
		<g>
			<g>
				<g>
					<path d="M191.194,206.941h-9.458c-3.342,0-6.272,3.053-6.272,6.533v7.345c0,3.437,2.813,6.232,6.272,6.232h9.458
						c3.459,0,6.273-2.796,6.273-6.232v-7.345C197.468,209.994,194.536,206.941,191.194,206.941z M192.468,220.819
						c0,0.656-0.595,1.232-1.273,1.232h-9.458c-0.678,0-1.272-0.576-1.272-1.232v-7.345c0-0.73,0.666-1.533,1.272-1.533h9.458
						c0.607,0,1.273,0.803,1.273,1.533V220.819z"/>
				</g>
			</g>
		</g>
		<g>
			<g>
				<path class="st2" d="M208.198,209.441h-9.459c-2.05,0-3.773,1.983-3.773,4.034v7.344c0,2.05,1.722,3.733,3.773,3.733h9.459
					c2.05,0,3.728-1.683,3.728-3.733v-7.344C211.926,211.425,210.249,209.441,208.198,209.441z"/>
			</g>
		</g>
		<g>
			<g>
				<g>
					<path d="M208.198,206.941h-9.458c-3.342,0-6.272,3.053-6.272,6.533v7.345c0,3.437,2.813,6.232,6.272,6.232h9.458
						c3.434,0,6.228-2.796,6.228-6.232v-7.345C214.426,209.934,211.574,206.941,208.198,206.941z M209.426,220.819
						c0,0.668-0.563,1.232-1.228,1.232h-9.458c-0.678,0-1.272-0.576-1.272-1.232v-7.345c0-0.73,0.666-1.533,1.272-1.533h9.458
						c0.585,0,1.228,0.803,1.228,1.533V220.819z"/>
				</g>
			</g>
		</g>
		<g>
			<g>
				<path class="st5" d="M222.668,239.742h-72.45c-1.669,0-3.022,1.674-3.022,3.343v1.283c0,5.044,4.089,9.133,9.133,9.133h60.228
					c5.044,0,9.133-4.089,9.133-9.133v-1.283C225.69,241.416,224.337,239.742,222.668,239.742z"/>
			</g>
		</g>
		<g>
			<g>
				<g>
					<path d="M222.668,237.241h-72.45c-2.993,0-5.521,2.676-5.521,5.843v1.283c0,6.414,5.219,11.633,11.633,11.633h60.228
						c6.415,0,11.634-5.219,11.634-11.633v-1.283C228.19,239.917,225.661,237.241,222.668,237.241z M223.19,244.367
						c0,3.657-2.976,6.633-6.634,6.633h-60.228c-3.657,0-6.633-2.976-6.633-6.633v-1.283c0-0.416,0.376-0.829,0.521-0.843h72.45
						c0.146,0.014,0.522,0.427,0.522,0.843V244.367z"/>
				</g>
			</g>
		</g>
	</g>
</g>
<g id="Layer_84">
</g>
<g id="Layer_85">
</g>
</svg>
